<svg width="20" height="20" viewBox="0 0 20 20" fill="none" xmlns="http://www.w3.org/2000/svg">
<g clip-path="url(#clip0_675_2)">
<path d="M16.9313 3.63376C15.6344 3.03859 14.266 2.61381 12.86 2.37001C12.8473 2.36786 12.8342 2.36972 12.8226 2.37531C12.8109 2.38091 12.8013 2.38997 12.795 2.40126C12.6188 2.71376 12.4238 3.12251 12.2875 3.44251C10.772 3.21252 9.23052 3.21252 7.71503 3.44251C7.56304 3.08603 7.3911 2.7384 7.20003 2.40126C7.19362 2.3901 7.18397 2.38114 7.17237 2.37556C7.16077 2.36998 7.14775 2.36805 7.13503 2.37001C5.72878 2.61251 4.36003 3.03751 3.06378 3.63376C3.05269 3.63799 3.04341 3.64594 3.03753 3.65626C0.445028 7.53001 -0.266222 11.3088 0.082528 15.04C0.083778 15.0575 0.095028 15.075 0.108778 15.0863C1.61843 16.2045 3.30702 17.0583 5.10253 17.6113C5.1152 17.6153 5.12883 17.6151 5.14142 17.6108C5.154 17.6066 5.1649 17.5984 5.17253 17.5875C5.55753 17.0625 5.90003 16.5088 6.19503 15.9263C6.20118 15.9143 6.20328 15.9006 6.20103 15.8873C6.19878 15.874 6.19229 15.8618 6.18253 15.8525C6.17607 15.8464 6.1684 15.8417 6.16003 15.8388C5.62148 15.6318 5.0999 15.3831 4.60003 15.095C4.58607 15.0871 4.57568 15.0741 4.57103 15.0588C4.56637 15.0434 4.56781 15.0268 4.57503 15.0125C4.57928 15.0032 4.58571 14.9951 4.59378 14.9888C4.69878 14.91 4.80378 14.8275 4.90378 14.745C4.91261 14.7379 4.92321 14.7333 4.93444 14.7318C4.94567 14.7303 4.95711 14.7318 4.96753 14.7363C8.24128 16.2313 11.785 16.2313 15.0188 14.7363C15.0296 14.7316 15.0414 14.7299 15.0531 14.7315C15.0648 14.733 15.0758 14.7377 15.085 14.745C15.185 14.8275 15.29 14.91 15.395 14.9888C15.4035 14.995 15.4104 15.0032 15.4149 15.0127C15.4195 15.0222 15.4216 15.0327 15.4211 15.0432C15.4206 15.0538 15.4175 15.064 15.4121 15.073C15.4067 15.0821 15.3991 15.0896 15.39 15.095C14.8913 15.3858 14.3691 15.6341 13.8288 15.8375C13.8202 15.8406 13.8123 15.8456 13.8059 15.8521C13.7994 15.8586 13.7944 15.8664 13.7913 15.875C13.7884 15.8834 13.7872 15.8922 13.7879 15.901C13.7885 15.9098 13.791 15.9184 13.795 15.9263C14.095 16.5075 14.4388 17.0625 14.8163 17.5875C14.8239 17.5984 14.8348 17.6066 14.8474 17.6108C14.86 17.6151 14.8736 17.6153 14.8863 17.6113C16.6848 17.06 18.3761 16.2061 19.8875 15.0863C19.8951 15.081 19.9014 15.0741 19.9059 15.0661C19.9105 15.0581 19.9132 15.0492 19.9138 15.04C20.3313 10.7263 19.215 6.97876 16.9563 3.65751C16.954 3.65202 16.9506 3.64708 16.9463 3.64298C16.942 3.63889 16.9369 3.63575 16.9313 3.63376ZM6.68378 12.7675C5.69753 12.7675 4.88628 11.8625 4.88628 10.7525C4.88628 9.64126 5.68253 8.73626 6.68378 8.73626C7.69253 8.73626 8.49628 9.64876 8.48128 10.7525C8.48128 11.8625 7.68503 12.7675 6.68378 12.7675ZM13.3288 12.7675C12.3438 12.7675 11.5313 11.8625 11.5313 10.7525C11.5313 9.64126 12.3275 8.73626 13.3288 8.73626C14.3375 8.73626 15.1425 9.64876 15.1263 10.7525C15.1263 11.8625 14.3375 12.7675 13.3288 12.7675Z" fill="#00A3FF"/>
</g>
<defs>
<clipPath id="clip0_675_2">
<rect width="20" height="20" fill="white"/>
</clipPath>
</defs>
</svg>
