<svg width="20" height="20" viewBox="0 0 20 20" fill="none" xmlns="http://www.w3.org/2000/svg">
<g clip-path="url(#clip0_619_192)">
<path d="M20 10.0613C20 4.50378 15.5225 -0.0012207 10 -0.0012207C4.475 2.9297e-05 -0.00250244 4.50378 -0.00250244 10.0625C-0.00250244 15.0838 3.655 19.2463 8.435 20.0013V12.97H5.8975V10.0625H8.4375V7.84378C8.4375 5.32253 9.93125 3.93003 12.215 3.93003C13.31 3.93003 14.4537 4.12628 14.4537 4.12628V6.60128H13.1925C11.9512 6.60128 11.5637 7.37753 11.5637 8.17378V10.0613H14.3362L13.8937 12.9688H11.5625V20C16.3425 19.245 20 15.0825 20 10.0613Z" fill="#00A3FF"/>
</g>
<defs>
<clipPath id="clip0_619_192">
<rect width="20" height="20" fill="white"/>
</clipPath>
</defs>
</svg>
