<svg width="16" height="16" viewBox="0 0 16 16" fill="none" xmlns="http://www.w3.org/2000/svg">
<g clip-path="url(#clip0_619_122)">
<path d="M14.9938 14C14.9938 14 15.95 14 15.95 13C15.95 12 14.9938 9 11.1688 9C7.34377 9 6.38752 12 6.38752 13C6.38752 14 7.34377 14 7.34377 14H14.9938ZM7.36481 13C7.35775 12.999 7.35073 12.9976 7.34377 12.996C7.34473 12.732 7.50347 11.966 8.07052 11.276C8.59837 10.629 9.52594 10 11.1688 10C12.8107 10 13.7382 10.63 14.267 11.276C14.8341 11.966 14.9919 12.733 14.9938 12.996L14.9861 12.998C14.9817 12.9988 14.9772 12.9995 14.9727 13H7.36481ZM11.1688 7C11.676 7 12.1625 6.78929 12.5211 6.41421C12.8798 6.03914 13.0813 5.53043 13.0813 5C13.0813 4.46957 12.8798 3.96086 12.5211 3.58579C12.1625 3.21071 11.676 3 11.1688 3C10.6615 3 10.1751 3.21071 9.81643 3.58579C9.45777 3.96086 9.25627 4.46957 9.25627 5C9.25627 5.53043 9.45777 6.03914 9.81643 6.41421C10.1751 6.78929 10.6615 7 11.1688 7ZM14.0375 5C14.0375 5.39397 13.9633 5.78407 13.8192 6.14805C13.675 6.51203 13.4637 6.84274 13.1973 7.12132C12.9309 7.3999 12.6146 7.62087 12.2666 7.77164C11.9185 7.9224 11.5455 8 11.1688 8C10.792 8 10.419 7.9224 10.071 7.77164C9.7229 7.62087 9.40665 7.3999 9.14026 7.12132C8.87387 6.84274 8.66256 6.51203 8.51839 6.14805C8.37423 5.78407 8.30002 5.39397 8.30002 5C8.30002 4.20435 8.60227 3.44129 9.14026 2.87868C9.67826 2.31607 10.4079 2 11.1688 2C11.9296 2 12.6593 2.31607 13.1973 2.87868C13.7353 3.44129 14.0375 4.20435 14.0375 5ZM7.28257 9.28C6.90006 9.15404 6.50575 9.07123 6.10639 9.033C5.88199 9.01068 5.65669 8.99967 5.43127 9C1.60627 9 0.650024 12 0.650024 13C0.650024 13.667 0.968456 14 1.60627 14H5.63782C5.49607 13.6878 5.42537 13.3455 5.43127 13C5.43127 11.99 5.79178 10.958 6.47359 10.096C6.70596 9.802 6.97657 9.527 7.28257 9.28ZM5.35477 10C4.78882 10.8893 4.4831 11.9318 4.47502 13H1.60627C1.60627 12.74 1.7631 11.97 2.33302 11.276C2.85418 10.64 3.75975 10.02 5.35477 10.001V10ZM2.0844 5.5C2.0844 4.70435 2.38664 3.94129 2.92464 3.37868C3.46263 2.81607 4.19231 2.5 4.95315 2.5C5.71399 2.5 6.44367 2.81607 6.98166 3.37868C7.51966 3.94129 7.8219 4.70435 7.8219 5.5C7.8219 6.29565 7.51966 7.05871 6.98166 7.62132C6.44367 8.18393 5.71399 8.5 4.95315 8.5C4.19231 8.5 3.46263 8.18393 2.92464 7.62132C2.38664 7.05871 2.0844 6.29565 2.0844 5.5ZM4.95315 3.5C4.44592 3.5 3.95947 3.71071 3.60081 4.08579C3.24214 4.46086 3.04065 4.96957 3.04065 5.5C3.04065 6.03043 3.24214 6.53914 3.60081 6.91421C3.95947 7.28929 4.44592 7.5 4.95315 7.5C5.46038 7.5 5.94683 7.28929 6.30549 6.91421C6.66415 6.53914 6.86565 6.03043 6.86565 5.5C6.86565 4.96957 6.66415 4.46086 6.30549 4.08579C5.94683 3.71071 5.46038 3.5 4.95315 3.5Z" fill="white"/>
</g>
<defs>
<clipPath id="clip0_619_122">
<rect width="15.3" height="16" fill="white" transform="translate(0.650024)"/>
</clipPath>
</defs>
</svg>
